<?xml version="1.0" encoding="utf-8" ?>
<svg xmlns="http://www.w3.org/2000/svg" xmlns:xlink="http://www.w3.org/1999/xlink" width="1024" height="1024">
	<defs>
		<linearGradient id="gradient_0" gradientUnits="userSpaceOnUse" x1="490.45282" y1="393.21063" x2="150.73694" y2="536.95953">
			<stop offset="0" stop-color="#789CFB"/>
			<stop offset="1" stop-color="#BCF7F4"/>
		</linearGradient>
	</defs>
	<path fill="url(#gradient_0)" transform="scale(1.6 1.6)" d="M464.393 516.385L447.006 522.448C419.647 530.754 391.11 535.544 362.656 537.819L336.338 539.667C291.824 541.172 222.905 535.159 180.784 518.339C121.225 494.554 93.2122 453.023 166.47 418.65C181.166 411.754 196.285 406.547 212.173 403.148C217.279 409.117 221.394 416.143 226.017 422.51L254.892 461.194C271.061 483.4 286.084 511.232 317.123 512.316C353.067 513.571 365.738 490.084 384.795 464.167L422.027 412.538C424.018 409.523 425.972 405.814 428.601 403.366C437.332 403.381 460.762 411.172 469.663 416.067C491.47 423.662 523.328 445.533 517.575 471.653C512.549 494.477 484.336 508.294 464.393 516.385Z"/>
	<defs>
		<linearGradient id="gradient_1" gradientUnits="userSpaceOnUse" x1="461.86981" y1="164.96098" x2="201.05107" y2="365.26685">
			<stop offset="0" stop-color="#6988FD"/>
			<stop offset="1" stop-color="#9CC2F5"/>
		</linearGradient>
	</defs>
	<path fill="url(#gradient_1)" transform="scale(1.6 1.6)" d="M312.275 82.3548C320.327 82.3076 328.453 82.1294 336.481 82.855C420.383 90.4382 486.991 168.272 479.814 252.586C475.242 306.286 444.824 354.243 414.375 397.04L361.24 469.062C352.12 481.373 344.493 492.529 328.441 495.228C303.031 498.882 295.387 488.73 281.506 471.006L250.469 428.807C211.083 373.702 164.684 319.179 161.084 248.21C156.67 161.216 226.418 86.5521 312.275 82.3548ZM312.483 142.372C251.05 148.113 211.432 205.592 225.487 264.35C236.654 311.034 279.541 343.002 327.581 339.324C343.86 337.879 358.063 332.877 372.19 324.767C418.352 298.263 431.025 234.593 404.543 189.855C385.73 158.072 349.218 139.098 312.483 142.372Z"/>
	<defs>
		<linearGradient id="gradient_2" gradientUnits="userSpaceOnUse" x1="273.53372" y1="307.44119" x2="367.36581" y2="173.81546">
			<stop offset="0" stop-color="#94B7F4"/>
			<stop offset="1" stop-color="#7092FC"/>
		</linearGradient>
	</defs>
	<path fill="url(#gradient_2)" transform="scale(1.6 1.6)" d="M317.121 158.592C326.726 158.407 336.374 159.417 345.581 162.245C407.383 181.223 422.007 264.549 371.794 304.984C358.153 315.97 341.879 322.159 324.389 323.126C308.371 323.421 292.812 319.982 278.876 311.875C210.897 272.328 234.835 162.158 317.121 158.592Z"/>
	<path fill="#7294F7" transform="scale(1.6 1.6)" d="M319.176 209.797L319.249 209.782C357.474 205.64 369.726 269.412 323.711 276.205C312.625 276.322 301.028 272.996 294.355 263.391L293.998 262.871C291.652 259.495 289.883 255.589 289.068 251.548L288.954 250.965C288.176 247.154 288.056 242.492 288.632 238.643L288.715 238.125C291.108 222.633 303.775 211.633 319.176 209.797Z"/>
</svg>
