<?xml version="1.0" encoding="UTF-8" standalone="no" ?>
<!DOCTYPE svg PUBLIC "-//W3C//DTD SVG 1.1//EN" "http://www.w3.org/Graphics/SVG/1.1/DTD/svg11.dtd">
<svg xmlns="http://www.w3.org/2000/svg" xmlns:xlink="http://www.w3.org/1999/xlink" version="1.1" width="1080" height="1080" viewBox="0 0 1080 1080" xml:space="preserve">
<desc>Created with Fabric.js 5.2.4</desc>
<defs>
</defs>
<rect x="0" y="0" width="100%" height="100%" fill="transparent"></rect>
<g transform="matrix(1 0 0 1 540 540)" id="ded77b4c-eb83-43b1-af88-13067a69be3f"  >
</g>
<g transform="matrix(1 0 0 1 540 540)" id="9037265a-9c85-4080-aeb1-8e454e369792"  >
<rect style="stroke: none; stroke-width: 1; stroke-dasharray: none; stroke-linecap: butt; stroke-dashoffset: 0; stroke-linejoin: miter; stroke-miterlimit: 4; fill: rgb(255,255,255); fill-rule: nonzero; opacity: 1; visibility: hidden;" vector-effect="non-scaling-stroke"  x="-540" y="-540" rx="0" ry="0" width="1080" height="1080" />
</g>
<g transform="matrix(21.4 0 0 21.4 540 557.44)"  >
<path style="stroke: none; stroke-width: 1; stroke-dasharray: none; stroke-linecap: butt; stroke-dashoffset: 0; stroke-linejoin: miter; stroke-miterlimit: 4; fill: rgb(0,0,0); fill-rule: nonzero; opacity: 1;" vector-effect="non-scaling-stroke"  transform=" translate(-23.99, -24)" d="M 29 0 C 18.5 0 10 8.5 10 19 C 10 23.9 11.9 28.3 14.9 31.7 L 11.4 35.2 L 10.5 34.300000000000004 C 10.1 33.900000000000006 9.5 33.900000000000006 9.1 34.300000000000004 L 0.6999999999999993 42.7 C -0.4000000000000008 43.800000000000004 -0.20000000000000073 45.6 1.0999999999999992 46.900000000000006 C 1.8 47.6 2.7 48 3.5 48 C 4.2 48 4.8 47.8 5.3 47.3 L 13.7 38.9 C 14.1 38.5 14.1 37.9 13.7 37.5 L 12.799999999999999 36.6 L 16.299999999999997 33.1 C 19.699999999999996 36.1 24.099999999999998 38 28.999999999999996 38 C 39.5 38 48 29.5 48 19 C 48 8.5 39.5 0 29 0 z M 3.9 45.9 C 3.6 46.1 3 46 2.5 45.5 C 2 45 1.9 44.4 2.1 44.1 L 9.8 36.4 L 11.600000000000001 38.199999999999996 L 3.9 45.9 z M 29 36 C 19.6 36 12 28.4 12 19 C 12 9.600000000000001 19.6 2 29 2 C 38.4 2 46 9.6 46 19 C 46 28.4 38.4 36 29 36 z" stroke-linecap="round" />
</g>
<g transform="matrix(22.46 0 0 22.46 645.96 447.07)"  >
<path style="stroke: none; stroke-width: 1; stroke-dasharray: none; stroke-linecap: butt; stroke-dashoffset: 0; stroke-linejoin: miter; stroke-miterlimit: 4; fill: rgb(0,0,0); fill-rule: nonzero; opacity: 1;" vector-effect="non-scaling-stroke"  transform=" translate(-29, -19)" d="M 38 18 C 37.4 18 37 18.4 37 19 C 37 23.4 33.4 27 29 27 C 24.6 27 21 23.4 21 19 C 21 14.600000000000001 24.6 11 29 11 C 29.6 11 30 10.6 30 10 C 30 9.4 29.6 9 29 9 C 23.5 9 19 13.5 19 19 C 19 24.5 23.5 29 29 29 C 34.5 29 39 24.5 39 19 C 39 18.4 38.6 18 38 18 z" stroke-linecap="round" />
</g>
<g transform="matrix(25.11 0 0 25.11 696.04 399.6)"  >
<path style="stroke: none; stroke-width: 1; stroke-dasharray: none; stroke-linecap: butt; stroke-dashoffset: 0; stroke-linejoin: miter; stroke-miterlimit: 4; fill: rgb(0,0,0); fill-rule: nonzero; opacity: 1;" vector-effect="non-scaling-stroke"  transform=" translate(-32, -16)" d="M 26.7 16.3 C 26.3 15.9 25.7 15.9 25.3 16.3 C 24.900000000000002 16.700000000000003 24.900000000000002 17.3 25.3 17.7 L 29.3 21.7 C 29.5 21.9 29.7 22 30 22 C 30 22 30 22 30.1 22 C 30.400000000000002 22 30.6 21.8 30.8 21.6 L 38.8 11.600000000000001 C 39.099999999999994 11.200000000000001 39.099999999999994 10.500000000000002 38.599999999999994 10.200000000000001 C 38.199999999999996 9.9 37.49999999999999 9.9 37.199999999999996 10.4 L 29.899999999999995 19.5 L 26.7 16.3 z" stroke-linecap="round" />
</g>
</svg>