<?xml version="1.0" encoding="UTF-8"?>
<svg version="1.1" xmlns="http://www.w3.org/2000/svg" width="512" height="512">
    <path
        d="M0 0 C4.64033987 2.15444351 8.03598049 5.2220809 10 10 C10.54851096 14.13732054 10.46541986 18.23134214 10.390625 22.3984375 C10.38496521 23.58853424 10.37930542 24.77863098 10.37347412 26.00479126 C10.35113451 29.79527486 10.30093963 33.58480345 10.25 37.375 C10.22993201 39.94920507 10.21168177 42.523425 10.1953125 45.09765625 C10.15127745 51.39876178 10.08438805 57.69931265 10 64 C10.68416992 63.9927037 11.36833984 63.98540741 12.07324219 63.97789001 C12.97204102 63.97221512 13.87083984 63.96654022 14.796875 63.96069336 C15.68729492 63.95339706 16.57771484 63.94610077 17.49511719 63.93858337 C28.54171983 64.2094324 37.9539618 71.07941423 45.75 78.3125 C56.28045317 89.43901655 58.45759605 101.70100403 58.40405273 116.53076172 C58.40976652 117.97088141 58.41673465 119.41099658 58.42485046 120.85110474 C58.44268693 124.73555809 58.44163144 128.61978437 58.43590808 132.50426626 C58.43280201 135.75943322 58.43892444 139.01455744 58.44494683 142.26971829 C58.45895956 149.95572777 58.45745828 157.64162602 58.44604492 165.32763672 C58.43457009 173.22913265 58.448636 181.13028889 58.4754414 189.03174007 C58.49766913 195.84143887 58.50421982 202.65103159 58.49836498 209.46076405 C58.49501067 213.5165573 58.49730789 217.57213297 58.51461601 221.62789536 C58.53019627 225.44484561 58.52600856 229.26129667 58.50731087 233.078228 C58.5036552 234.46966971 58.506644 235.86114934 58.51719666 237.25255585 C58.62654005 252.87676048 54.31642448 264.29382432 43.6875 275.75 C35.6826683 283.32600143 25.88971204 288.09167142 14.82421875 288.02783203 C13.92147217 288.02381378 13.01872559 288.01979553 12.08862305 288.01565552 C11.39937744 288.0104892 10.71013184 288.00532288 10 288 C10.00888245 288.66319244 10.01776489 289.32638489 10.0269165 290.00967407 C10.11549956 296.92026134 10.17578015 303.83068696 10.21972656 310.74169922 C10.23982563 313.31989088 10.26710941 315.89803704 10.30175781 318.47607422 C10.35034847 322.18468461 10.37298658 325.89269156 10.390625 329.6015625 C10.41127014 330.75177887 10.43191528 331.90199524 10.45318604 333.08706665 C10.45494774 339.38852193 10.27883437 343.23604813 6 348 C2.18069828 351.62833663 -0.88279006 352.31000458 -6 352.5 C-11.11720994 352.31000458 -14.18069828 351.62833663 -18 348 C-23.04832683 342.37931362 -22.5215801 336.89755008 -22.390625 329.6015625 C-22.38496521 328.41146576 -22.37930542 327.22136902 -22.37347412 325.99520874 C-22.35113451 322.20472514 -22.30093963 318.41519655 -22.25 314.625 C-22.22993201 312.05079493 -22.21168177 309.476575 -22.1953125 306.90234375 C-22.15127745 300.60123822 -22.08438805 294.30068735 -22 288 C-22.68416992 288.0072963 -23.36833984 288.01459259 -24.07324219 288.02210999 C-24.97204102 288.02778488 -25.87083984 288.03345978 -26.796875 288.03930664 C-27.68729492 288.04660294 -28.57771484 288.05389923 -29.49511719 288.06141663 C-40.54171983 287.7905676 -49.9539618 280.92058577 -57.75 273.6875 C-68.28045317 262.56098345 -70.45759605 250.29899597 -70.40405273 235.46923828 C-70.40976652 234.02911859 -70.41673465 232.58900342 -70.42485046 231.14889526 C-70.44268693 227.26444191 -70.44163144 223.38021563 -70.43590808 219.49573374 C-70.43280201 216.24056678 -70.43892444 212.98544256 -70.44494683 209.73028171 C-70.45895956 202.04427223 -70.45745828 194.35837398 -70.44604492 186.67236328 C-70.43457009 178.77086735 -70.448636 170.86971111 -70.4754414 162.96825993 C-70.49766913 156.15856113 -70.50421982 149.34896841 -70.49836498 142.53923595 C-70.49501067 138.4834427 -70.49730789 134.42786703 -70.51461601 130.37210464 C-70.53019627 126.55515439 -70.52600856 122.73870333 -70.50731087 118.921772 C-70.5036552 117.53033029 -70.506644 116.13885066 -70.51719666 114.74744415 C-70.62654005 99.12323952 -66.31642448 87.70617568 -55.6875 76.25 C-47.6826683 68.67399857 -37.88971204 63.90832858 -26.82421875 63.97216797 C-25.47009888 63.97819534 -25.47009888 63.97819534 -24.08862305 63.98434448 C-23.05475464 63.99209396 -23.05475464 63.99209396 -22 64 C-22.00888245 63.33680756 -22.01776489 62.67361511 -22.0269165 61.99032593 C-22.11549956 55.07973866 -22.17578015 48.16931304 -22.21972656 41.25830078 C-22.23982563 38.68010912 -22.26710941 36.10196296 -22.30175781 33.52392578 C-22.35034847 29.81531539 -22.37298658 26.10730844 -22.390625 22.3984375 C-22.41127014 21.24822113 -22.43191528 20.09800476 -22.45318604 18.91293335 C-22.45494774 12.61147807 -22.27883437 8.76395187 -18 4 C-12.72867143 -1.00776214 -6.89190982 -0.92775709 0 0 Z "
        fill="#212121" transform="translate(102,128)" />
    <path
        d="M0 0 C4.64033987 2.15444351 8.03598049 5.2220809 10 10 C10.54851096 14.13732054 10.46541986 18.23134214 10.390625 22.3984375 C10.38496521 23.58853424 10.37930542 24.77863098 10.37347412 26.00479126 C10.35113451 29.79527486 10.30093963 33.58480345 10.25 37.375 C10.22993201 39.94920507 10.21168177 42.523425 10.1953125 45.09765625 C10.15127745 51.39876178 10.08438805 57.69931265 10 64 C10.68416992 63.9927037 11.36833984 63.98540741 12.07324219 63.97789001 C12.97204102 63.97221512 13.87083984 63.96654022 14.796875 63.96069336 C15.68729492 63.95339706 16.57771484 63.94610077 17.49511719 63.93858337 C28.54171983 64.2094324 37.9539618 71.07941423 45.75 78.3125 C56.28045317 89.43901655 58.45759605 101.70100403 58.40405273 116.53076172 C58.40976652 117.97088141 58.41673465 119.41099658 58.42485046 120.85110474 C58.44268693 124.73555809 58.44163144 128.61978437 58.43590808 132.50426626 C58.43280201 135.75943322 58.43892444 139.01455744 58.44494683 142.26971829 C58.45895956 149.95572777 58.45745828 157.64162602 58.44604492 165.32763672 C58.43457009 173.22913265 58.448636 181.13028889 58.4754414 189.03174007 C58.49766913 195.84143887 58.50421982 202.65103159 58.49836498 209.46076405 C58.49501067 213.5165573 58.49730789 217.57213297 58.51461601 221.62789536 C58.53019627 225.44484561 58.52600856 229.26129667 58.50731087 233.078228 C58.5036552 234.46966971 58.506644 235.86114934 58.51719666 237.25255585 C58.62654005 252.87676048 54.31642448 264.29382432 43.6875 275.75 C35.6826683 283.32600143 25.88971204 288.09167142 14.82421875 288.02783203 C13.92147217 288.02381378 13.01872559 288.01979553 12.08862305 288.01565552 C11.39937744 288.0104892 10.71013184 288.00532288 10 288 C10.00888245 288.66319244 10.01776489 289.32638489 10.0269165 290.00967407 C10.11549956 296.92026134 10.17578015 303.83068696 10.21972656 310.74169922 C10.23982563 313.31989088 10.26710941 315.89803704 10.30175781 318.47607422 C10.35034847 322.18468461 10.37298658 325.89269156 10.390625 329.6015625 C10.41127014 330.75177887 10.43191528 331.90199524 10.45318604 333.08706665 C10.45494774 339.38852193 10.27883437 343.23604813 6 348 C2.18069828 351.62833663 -0.88279006 352.31000458 -6 352.5 C-11.11720994 352.31000458 -14.18069828 351.62833663 -18 348 C-23.04832683 342.37931362 -22.5215801 336.89755008 -22.390625 329.6015625 C-22.38496521 328.41146576 -22.37930542 327.22136902 -22.37347412 325.99520874 C-22.35113451 322.20472514 -22.30093963 318.41519655 -22.25 314.625 C-22.22993201 312.05079493 -22.21168177 309.476575 -22.1953125 306.90234375 C-22.15127745 300.60123822 -22.08438805 294.30068735 -22 288 C-22.68416992 288.0072963 -23.36833984 288.01459259 -24.07324219 288.02210999 C-24.97204102 288.02778488 -25.87083984 288.03345978 -26.796875 288.03930664 C-27.68729492 288.04660294 -28.57771484 288.05389923 -29.49511719 288.06141663 C-40.54171983 287.7905676 -49.9539618 280.92058577 -57.75 273.6875 C-68.28045317 262.56098345 -70.45759605 250.29899597 -70.40405273 235.46923828 C-70.40976652 234.02911859 -70.41673465 232.58900342 -70.42485046 231.14889526 C-70.44268693 227.26444191 -70.44163144 223.38021563 -70.43590808 219.49573374 C-70.43280201 216.24056678 -70.43892444 212.98544256 -70.44494683 209.73028171 C-70.45895956 202.04427223 -70.45745828 194.35837398 -70.44604492 186.67236328 C-70.43457009 178.77086735 -70.448636 170.86971111 -70.4754414 162.96825993 C-70.49766913 156.15856113 -70.50421982 149.34896841 -70.49836498 142.53923595 C-70.49501067 138.4834427 -70.49730789 134.42786703 -70.51461601 130.37210464 C-70.53019627 126.55515439 -70.52600856 122.73870333 -70.50731087 118.921772 C-70.5036552 117.53033029 -70.506644 116.13885066 -70.51719666 114.74744415 C-70.62654005 99.12323952 -66.31642448 87.70617568 -55.6875 76.25 C-47.6826683 68.67399857 -37.88971204 63.90832858 -26.82421875 63.97216797 C-25.47009888 63.97819534 -25.47009888 63.97819534 -24.08862305 63.98434448 C-23.05475464 63.99209396 -23.05475464 63.99209396 -22 64 C-22.00888245 63.33680756 -22.01776489 62.67361511 -22.0269165 61.99032593 C-22.11549956 55.07973866 -22.17578015 48.16931304 -22.21972656 41.25830078 C-22.23982563 38.68010912 -22.26710941 36.10196296 -22.30175781 33.52392578 C-22.35034847 29.81531539 -22.37298658 26.10730844 -22.390625 22.3984375 C-22.41127014 21.24822113 -22.43191528 20.09800476 -22.45318604 18.91293335 C-22.45494774 12.61147807 -22.27883437 8.76395187 -18 4 C-12.72867143 -1.00776214 -6.89190982 -0.92775709 0 0 Z "
        fill="#212121" transform="translate(262,80)" />
    <path
        d="M0 0 C4.64033987 2.15444351 8.03598049 5.2220809 10 10 C10.54851096 14.13732054 10.46541986 18.23134214 10.390625 22.3984375 C10.38496521 23.58853424 10.37930542 24.77863098 10.37347412 26.00479126 C10.35113451 29.79527486 10.30093963 33.58480345 10.25 37.375 C10.22993201 39.94920507 10.21168177 42.523425 10.1953125 45.09765625 C10.15127745 51.39876178 10.08438805 57.69931265 10 64 C10.68416992 63.9927037 11.36833984 63.98540741 12.07324219 63.97789001 C12.97204102 63.97221512 13.87083984 63.96654022 14.796875 63.96069336 C15.68729492 63.95339706 16.57771484 63.94610077 17.49511719 63.93858337 C28.54171983 64.2094324 37.9539618 71.07941423 45.75 78.3125 C56.28045317 89.43901655 58.45759605 101.70100403 58.40405273 116.53076172 C58.40976652 117.97088141 58.41673465 119.41099658 58.42485046 120.85110474 C58.44268693 124.73555809 58.44163144 128.61978437 58.43590808 132.50426626 C58.43280201 135.75943322 58.43892444 139.01455744 58.44494683 142.26971829 C58.45895956 149.95572777 58.45745828 157.64162602 58.44604492 165.32763672 C58.43457009 173.22913265 58.448636 181.13028889 58.4754414 189.03174007 C58.49766913 195.84143887 58.50421982 202.65103159 58.49836498 209.46076405 C58.49501067 213.5165573 58.49730789 217.57213297 58.51461601 221.62789536 C58.53019627 225.44484561 58.52600856 229.26129667 58.50731087 233.078228 C58.5036552 234.46966971 58.506644 235.86114934 58.51719666 237.25255585 C58.62654005 252.87676048 54.31642448 264.29382432 43.6875 275.75 C35.6826683 283.32600143 25.88971204 288.09167142 14.82421875 288.02783203 C13.92147217 288.02381378 13.01872559 288.01979553 12.08862305 288.01565552 C11.39937744 288.0104892 10.71013184 288.00532288 10 288 C10.00888245 288.66319244 10.01776489 289.32638489 10.0269165 290.00967407 C10.11549956 296.92026134 10.17578015 303.83068696 10.21972656 310.74169922 C10.23982563 313.31989088 10.26710941 315.89803704 10.30175781 318.47607422 C10.35034847 322.18468461 10.37298658 325.89269156 10.390625 329.6015625 C10.41127014 330.75177887 10.43191528 331.90199524 10.45318604 333.08706665 C10.45494774 339.38852193 10.27883437 343.23604813 6 348 C2.18069828 351.62833663 -0.88279006 352.31000458 -6 352.5 C-11.11720994 352.31000458 -14.18069828 351.62833663 -18 348 C-23.04832683 342.37931362 -22.5215801 336.89755008 -22.390625 329.6015625 C-22.38496521 328.41146576 -22.37930542 327.22136902 -22.37347412 325.99520874 C-22.35113451 322.20472514 -22.30093963 318.41519655 -22.25 314.625 C-22.22993201 312.05079493 -22.21168177 309.476575 -22.1953125 306.90234375 C-22.15127745 300.60123822 -22.08438805 294.30068735 -22 288 C-22.68416992 288.0072963 -23.36833984 288.01459259 -24.07324219 288.02210999 C-24.97204102 288.02778488 -25.87083984 288.03345978 -26.796875 288.03930664 C-27.68729492 288.04660294 -28.57771484 288.05389923 -29.49511719 288.06141663 C-40.54171983 287.7905676 -49.9539618 280.92058577 -57.75 273.6875 C-68.28045317 262.56098345 -70.45759605 250.29899597 -70.40405273 235.46923828 C-70.40976652 234.02911859 -70.41673465 232.58900342 -70.42485046 231.14889526 C-70.44268693 227.26444191 -70.44163144 223.38021563 -70.43590808 219.49573374 C-70.43280201 216.24056678 -70.43892444 212.98544256 -70.44494683 209.73028171 C-70.45895956 202.04427223 -70.45745828 194.35837398 -70.44604492 186.67236328 C-70.43457009 178.77086735 -70.448636 170.86971111 -70.4754414 162.96825993 C-70.49766913 156.15856113 -70.50421982 149.34896841 -70.49836498 142.53923595 C-70.49501067 138.4834427 -70.49730789 134.42786703 -70.51461601 130.37210464 C-70.53019627 126.55515439 -70.52600856 122.73870333 -70.50731087 118.921772 C-70.5036552 117.53033029 -70.506644 116.13885066 -70.51719666 114.74744415 C-70.62654005 99.12323952 -66.31642448 87.70617568 -55.6875 76.25 C-47.6826683 68.67399857 -37.88971204 63.90832858 -26.82421875 63.97216797 C-25.47009888 63.97819534 -25.47009888 63.97819534 -24.08862305 63.98434448 C-23.05475464 63.99209396 -23.05475464 63.99209396 -22 64 C-22.00888245 63.33680756 -22.01776489 62.67361511 -22.0269165 61.99032593 C-22.11549956 55.07973866 -22.17578015 48.16931304 -22.21972656 41.25830078 C-22.23982563 38.68010912 -22.26710941 36.10196296 -22.30175781 33.52392578 C-22.35034847 29.81531539 -22.37298658 26.10730844 -22.390625 22.3984375 C-22.41127014 21.24822113 -22.43191528 20.09800476 -22.45318604 18.91293335 C-22.45494774 12.61147807 -22.27883437 8.76395187 -18 4 C-12.72867143 -1.00776214 -6.89190982 -0.92775709 0 0 Z "
        fill="#212121" transform="translate(422,32)" />
    <path
        d="M0 0 C0.89297791 -0.00570007 1.78595581 -0.01140015 2.70599365 -0.01727295 C4.59906833 -0.02672986 6.49215952 -0.03325967 8.38525391 -0.03710938 C11.27145476 -0.04678974 14.15693589 -0.07779591 17.04296875 -0.109375 C18.88280827 -0.11590764 20.72265289 -0.12115709 22.5625 -0.125 C23.42208313 -0.1373468 24.28166626 -0.1496936 25.16729736 -0.16241455 C30.91165895 -0.14123443 35.31638346 0.65423385 39.69140625 4.73828125 C43.04044854 9.11779809 44.17105693 11.13461044 44.18731689 16.60430908 C44.19302704 17.75112656 44.19873718 18.89794403 44.20462036 20.07951355 C44.20629715 21.97616508 44.20629715 21.97616508 44.20800781 23.91113281 C44.21263537 25.25143063 44.21765994 26.59172713 44.22305298 27.93202209 C44.23618723 31.57888393 44.24262422 35.22572734 44.24706364 38.87260914 C44.24999342 41.15113638 44.25409811 43.42965858 44.25856781 45.70818329 C44.27224701 52.83730174 44.28191093 59.96640867 44.2857697 67.09553933 C44.29024811 75.3244054 44.30778402 83.55310517 44.3367703 91.78192067 C44.358396 98.14209052 44.3684745 104.50221362 44.36981082 110.86241984 C44.37085845 114.6610228 44.37675688 118.45946952 44.39463043 122.25803375 C44.41112601 125.83346143 44.41325956 129.40861571 44.40449142 132.98406792 C44.40335552 134.91760624 44.41706247 136.85113554 44.4312439 138.78462219 C44.39897227 145.49545675 44.28404158 150.65404393 39.546875 155.84765625 C35.67207956 158.86474957 32.92522806 160.31174671 28.0378418 160.38012695 C27.23658371 160.39296219 26.43532562 160.40579742 25.60978699 160.41902161 C24.74726822 160.42640854 23.88474945 160.43379547 22.99609375 160.44140625 C22.10453079 160.449478 21.21296783 160.45754974 20.29438782 160.46586609 C18.40729714 160.47969406 16.52018158 160.49042197 14.63305664 160.49829102 C11.755537 160.51549845 8.87916819 160.55939488 6.00195312 160.60351562 C4.1666751 160.61364355 2.33138732 160.62215934 0.49609375 160.62890625 C-0.36035233 160.64641434 -1.2167984 160.66392242 -2.09919739 160.68196106 C-7.55282247 160.66228095 -10.62135931 159.82183261 -14.953125 156.203125 C-18.99489385 151.72440816 -20.0748133 148.64304698 -20.10029602 142.6816864 C-20.10745132 141.53349426 -20.11460663 140.38530212 -20.12197876 139.20231628 C-20.12466766 137.9414772 -20.12735657 136.68063812 -20.13012695 135.3815918 C-20.13639303 134.04114608 -20.14303996 132.7007021 -20.15003967 131.36026001 C-20.17106378 126.95763352 -20.18143988 122.55500675 -20.19140625 118.15234375 C-20.1954543 116.6359588 -20.19957123 115.11957404 -20.20375633 113.60318947 C-20.22280367 106.47941698 -20.23703616 99.35565483 -20.2453683 92.23186177 C-20.25514217 84.01144675 -20.28146727 75.7913009 -20.32186919 67.57098073 C-20.35203499 61.21503811 -20.36683757 54.85917264 -20.37014931 48.50315982 C-20.37249912 44.70786869 -20.3814502 40.91286526 -20.40661049 37.11765099 C-20.42990494 33.5462567 -20.4341193 29.97533929 -20.42384911 26.4038887 C-20.42311836 24.47272406 -20.4421996 22.54158356 -20.46191406 20.61051941 C-20.42340174 14.19541112 -20.38782341 10.02056059 -15.953125 5.203125 C-10.5280473 0.42388989 -7.08195108 0.03468724 0 0 Z "
        fill="#BCBCBC" transform="translate(83.953125,223.796875)" />
    <path
        d="M0 0 C0.89297791 -0.00570007 1.78595581 -0.01140015 2.70599365 -0.01727295 C4.59906833 -0.02672986 6.49215952 -0.03325967 8.38525391 -0.03710938 C11.27145476 -0.04678974 14.15693589 -0.07779591 17.04296875 -0.109375 C18.88280827 -0.11590764 20.72265289 -0.12115709 22.5625 -0.125 C23.42208313 -0.1373468 24.28166626 -0.1496936 25.16729736 -0.16241455 C30.91165895 -0.14123443 35.31638346 0.65423385 39.69140625 4.73828125 C43.04044854 9.11779809 44.17105693 11.13461044 44.18731689 16.60430908 C44.19302704 17.75112656 44.19873718 18.89794403 44.20462036 20.07951355 C44.20629715 21.97616508 44.20629715 21.97616508 44.20800781 23.91113281 C44.21263537 25.25143063 44.21765994 26.59172713 44.22305298 27.93202209 C44.23618723 31.57888393 44.24262422 35.22572734 44.24706364 38.87260914 C44.24999342 41.15113638 44.25409811 43.42965858 44.25856781 45.70818329 C44.27224701 52.83730174 44.28191093 59.96640867 44.2857697 67.09553933 C44.29024811 75.3244054 44.30778402 83.55310517 44.3367703 91.78192067 C44.358396 98.14209052 44.3684745 104.50221362 44.36981082 110.86241984 C44.37085845 114.6610228 44.37675688 118.45946952 44.39463043 122.25803375 C44.41112601 125.83346143 44.41325956 129.40861571 44.40449142 132.98406792 C44.40335552 134.91760624 44.41706247 136.85113554 44.4312439 138.78462219 C44.39897227 145.49545675 44.28404158 150.65404393 39.546875 155.84765625 C35.67207956 158.86474957 32.92522806 160.31174671 28.0378418 160.38012695 C27.23658371 160.39296219 26.43532562 160.40579742 25.60978699 160.41902161 C24.74726822 160.42640854 23.88474945 160.43379547 22.99609375 160.44140625 C22.10453079 160.449478 21.21296783 160.45754974 20.29438782 160.46586609 C18.40729714 160.47969406 16.52018158 160.49042197 14.63305664 160.49829102 C11.755537 160.51549845 8.87916819 160.55939488 6.00195312 160.60351562 C4.1666751 160.61364355 2.33138732 160.62215934 0.49609375 160.62890625 C-0.36035233 160.64641434 -1.2167984 160.66392242 -2.09919739 160.68196106 C-7.55282247 160.66228095 -10.62135931 159.82183261 -14.953125 156.203125 C-18.99489385 151.72440816 -20.0748133 148.64304698 -20.10029602 142.6816864 C-20.10745132 141.53349426 -20.11460663 140.38530212 -20.12197876 139.20231628 C-20.12466766 137.9414772 -20.12735657 136.68063812 -20.13012695 135.3815918 C-20.13639303 134.04114608 -20.14303996 132.7007021 -20.15003967 131.36026001 C-20.17106378 126.95763352 -20.18143988 122.55500675 -20.19140625 118.15234375 C-20.1954543 116.6359588 -20.19957123 115.11957404 -20.20375633 113.60318947 C-20.22280367 106.47941698 -20.23703616 99.35565483 -20.2453683 92.23186177 C-20.25514217 84.01144675 -20.28146727 75.7913009 -20.32186919 67.57098073 C-20.35203499 61.21503811 -20.36683757 54.85917264 -20.37014931 48.50315982 C-20.37249912 44.70786869 -20.3814502 40.91286526 -20.40661049 37.11765099 C-20.42990494 33.5462567 -20.4341193 29.97533929 -20.42384911 26.4038887 C-20.42311836 24.47272406 -20.4421996 22.54158356 -20.46191406 20.61051941 C-20.42340174 14.19541112 -20.38782341 10.02056059 -15.953125 5.203125 C-10.5280473 0.42388989 -7.08195108 0.03468724 0 0 Z "
        fill="#BCBCBC" transform="translate(403.953125,127.796875)" />
    <path
        d="M0 0 C0.89297791 -0.00570007 1.78595581 -0.01140015 2.70599365 -0.01727295 C4.59906833 -0.02672986 6.49215952 -0.03325967 8.38525391 -0.03710938 C11.27145476 -0.04678974 14.15693589 -0.07779591 17.04296875 -0.109375 C18.88280827 -0.11590764 20.72265289 -0.12115709 22.5625 -0.125 C23.42208313 -0.1373468 24.28166626 -0.1496936 25.16729736 -0.16241455 C30.91165895 -0.14123443 35.31638346 0.65423385 39.69140625 4.73828125 C43.04044854 9.11779809 44.17105693 11.13461044 44.18731689 16.60430908 C44.19302704 17.75112656 44.19873718 18.89794403 44.20462036 20.07951355 C44.20629715 21.97616508 44.20629715 21.97616508 44.20800781 23.91113281 C44.21263537 25.25143063 44.21765994 26.59172713 44.22305298 27.93202209 C44.23618723 31.57888393 44.24262422 35.22572734 44.24706364 38.87260914 C44.24999342 41.15113638 44.25409811 43.42965858 44.25856781 45.70818329 C44.27224701 52.83730174 44.28191093 59.96640867 44.2857697 67.09553933 C44.29024811 75.3244054 44.30778402 83.55310517 44.3367703 91.78192067 C44.358396 98.14209052 44.3684745 104.50221362 44.36981082 110.86241984 C44.37085845 114.6610228 44.37675688 118.45946952 44.39463043 122.25803375 C44.41112601 125.83346143 44.41325956 129.40861571 44.40449142 132.98406792 C44.40335552 134.91760624 44.41706247 136.85113554 44.4312439 138.78462219 C44.39892138 145.50604039 44.25327111 150.60341097 39.58203125 155.84765625 C35.329384 159.22044545 32.34804934 160.30334601 27.01611328 160.38012695 C25.84437057 160.39937981 25.84437057 160.39937981 24.6489563 160.41902161 C23.8134726 160.42640854 22.97798889 160.43379547 22.1171875 160.44140625 C21.24923553 160.449478 20.38128357 160.45754974 19.48703003 160.46586609 C17.65299459 160.47967588 15.81893379 160.49041188 13.98486328 160.49829102 C12.11304168 160.50982541 10.24125335 160.53030025 8.36962891 160.55981445 C5.66025517 160.60252873 2.95185629 160.61866362 0.2421875 160.62890625 C-0.58924774 160.64641434 -1.42068298 160.66392242 -2.27731323 160.68196106 C-7.66155238 160.66195772 -10.67057212 159.75862848 -14.953125 156.203125 C-18.99489385 151.72440816 -20.0748133 148.64304698 -20.10029602 142.6816864 C-20.10745132 141.53349426 -20.11460663 140.38530212 -20.12197876 139.20231628 C-20.12466766 137.9414772 -20.12735657 136.68063812 -20.13012695 135.3815918 C-20.13639303 134.04114608 -20.14303996 132.7007021 -20.15003967 131.36026001 C-20.17106378 126.95763352 -20.18143988 122.55500675 -20.19140625 118.15234375 C-20.1954543 116.6359588 -20.19957123 115.11957404 -20.20375633 113.60318947 C-20.22280367 106.47941698 -20.23703616 99.35565483 -20.2453683 92.23186177 C-20.25514217 84.01144675 -20.28146727 75.7913009 -20.32186919 67.57098073 C-20.35203499 61.21503811 -20.36683757 54.85917264 -20.37014931 48.50315982 C-20.37249912 44.70786869 -20.3814502 40.91286526 -20.40661049 37.11765099 C-20.42990494 33.5462567 -20.4341193 29.97533929 -20.42384911 26.4038887 C-20.42311836 24.47272406 -20.4421996 22.54158356 -20.46191406 20.61051941 C-20.42340174 14.19541112 -20.38782341 10.02056059 -15.953125 5.203125 C-10.5280473 0.42388989 -7.08195108 0.03468724 0 0 Z "
        fill="#747475" transform="translate(243.953125,175.796875)" />
</svg>