<?xml version="1.0" encoding="utf-8" ?>
<svg xmlns="http://www.w3.org/2000/svg" xmlns:xlink="http://www.w3.org/1999/xlink" width="1024" height="1024">
	<path fill="#7294F7" transform="scale(1.6 1.6)" d="M187.248 399.196C214.066 396.666 238.482 418.998 234.782 446.42L234.696 447.031C231.76 468.744 216.615 481.858 195.702 484.519L195.381 484.575C185.279 485.92 173.732 482.529 165.625 476.553L165.123 476.186C157.034 470.167 150.496 459.323 149.052 449.331L148.889 448.172C145.343 422.297 161.822 402.759 187.248 399.196ZM189.515 431.606C177.11 436.205 179.178 451.673 193.633 451.213C206.507 446.37 202.572 429.967 189.515 431.606Z"/>
	<path fill="#7294F7" transform="scale(1.6 1.6)" d="M478.716 399.18C516.211 397.025 541.216 437.613 516.581 468.406C508.606 478.375 498.193 483.18 485.702 484.558L485.526 484.586C430.115 489.544 420.014 407.006 478.716 399.18ZM480.308 431.588C466.637 435.592 469.356 452.576 484.268 451.371C497.315 447.574 493.237 431.175 480.308 431.588Z"/>
	<defs>
		<linearGradient id="gradient_0" gradientUnits="userSpaceOnUse" x1="550.59943" y1="289.00964" x2="407.46585" y2="321.78049">
			<stop offset="0" stop-color="#678AF9"/>
			<stop offset="1" stop-color="#96C1FB"/>
		</linearGradient>
	</defs>
	<path fill="url(#gradient_0)" transform="scale(1.6 1.6)" d="M429.365 239.866L486.139 239.719C512.039 239.728 515.959 252.751 526.978 273.966L553.666 324.254C556.576 329.726 559.8 335.163 562.348 340.809C567.795 352.885 565.038 365.543 550.21 366.185L440.389 366.122C435.92 366.122 426.863 367.186 422.9 365.525L422.5 365.345C414.267 361.914 414.509 354.491 414.555 347.185L414.608 261.511C414.613 258.071 414.062 253.21 415.168 249.957L415.321 249.531C417.617 242.98 422.57 240.543 429.365 239.866Z"/>
	<path fill="white" transform="scale(1.6 1.6)" d="M448.248 264.17L468.513 264.096C479.456 264.094 486.027 261.524 492.592 271.53L523.285 323.205C528.624 333.156 526.059 336.424 515.391 336.547L479.524 336.568C460.549 336.562 447.211 337.548 437.258 317.188C435.869 314.347 436.228 311.567 436.22 308.474L436.207 282.196C436.218 273.186 436.535 265.787 448.248 264.17Z"/>
	<path fill="#7294F7" transform="scale(1.6 1.6)" d="M428.501 376.515L538.053 376.479C552.697 376.435 566.876 375.281 572.256 393.816L572.511 394.688C573.164 396.437 573.391 398.13 573.528 399.989C574.752 416.594 572.856 432.909 555.911 440.15C549.441 442.914 542.008 442.922 535.093 443.418C534.288 430.133 531.079 417.109 522.04 406.907C492.713 373.806 437.342 390.663 430.56 432.544C430.042 435.74 430.154 439.217 430.034 442.458L244.761 442.543L244.157 437.883C241.136 415.029 224.316 393.826 200.997 390.2L199.985 390.036C172.502 385.792 145.911 403.299 140.459 430.925C139.711 434.714 139.772 438.505 139.192 442.3C133.378 442.841 120.651 443.084 115.456 441.637L114.888 441.47C95.6446 436.347 91.567 424.773 91.5647 406.89C91.5612 379.697 101.383 376.545 127.785 376.528L428.501 376.515Z"/>
	<defs>
		<linearGradient id="gradient_1" gradientUnits="userSpaceOnUse" x1="410.57788" y1="201.11771" x2="83.799561" y2="328.49423">
			<stop offset="0" stop-color="#86AEF5"/>
			<stop offset="1" stop-color="#ABD9F5"/>
		</linearGradient>
	</defs>
	<path fill="url(#gradient_1)" transform="scale(1.6 1.6)" d="M181.06 157.124L372.681 157.156C375.005 157.162 377.647 156.983 379.896 157.623C402.524 164.054 404.067 178.659 404.033 198.035L404.08 348.571C404.066 355.738 403.536 360.826 396.57 365.002L396.175 365.229C391.973 367.716 373.635 366.116 367.929 366.114L315.851 366.115L115.57 366.166C112.035 366.171 107.536 366.738 104.225 365.536L101.494 364.448C98.3336 362.969 94.9569 359.224 93.7987 355.893L93.627 355.391C92.7135 352.932 92.6027 351.199 92.5925 348.587L92.5579 199.543C92.5582 194.42 92.0113 188.552 92.7974 183.506C95.7383 164.627 110.454 157.159 127.672 157.141L181.06 157.124Z"/>
</svg>
