<?xml version="1.0" encoding="utf-8" ?>
<svg xmlns="http://www.w3.org/2000/svg" xmlns:xlink="http://www.w3.org/1999/xlink" width="1024" height="1024">
	<path fill="#2ED2D4" transform="scale(1.6 1.6)" d="M141.098 514.617L207.726 513.448C210.796 513.448 214.036 513.241 217.083 513.569C209.438 535.856 196.384 536.025 177.5 536.063C172.097 536.074 165.621 536.712 160.385 535.414C150.917 533.066 142.337 524.824 141.137 514.96L141.098 514.617Z"/>
	<path fill="#2ED2D4" transform="scale(1.6 1.6)" d="M424.276 513.423L456.406 513.192C459.214 513.063 461.966 512.215 464.714 512.153L481.749 512.008C484.743 512.023 488.301 512.407 491.233 511.901L495.312 511.409C496.387 512.123 498.957 511.62 500.398 511.952C500.265 518.668 497.309 523.686 492.554 528.294C484.853 535.757 476.215 535.97 466.1 535.995L451.875 535.967C438.306 535.685 426.083 527.395 424.276 513.423Z"/>
	<path fill="#2ED2D4" transform="scale(1.6 1.6)" d="M305.346 175.981L334.714 175.855C334.628 177.701 334.501 179.526 334.732 181.366L334.855 228.423C340.113 231.079 353.892 223.374 363.156 236.875L363.438 237.279C367.756 243.58 367.817 250.69 368.473 258.023C365.443 258.996 361.411 258.6 358.246 258.602L272.068 258.22C272.803 231.223 281.229 228.057 305.283 228.758L305.346 175.981Z"/>
	<defs>
		<linearGradient id="gradient_0" gradientUnits="userSpaceOnUse" x1="395.45953" y1="9.7087736" x2="239.22656" y2="189.48727">
			<stop offset="0" stop-color="#25C7D4"/>
			<stop offset="1" stop-color="#50D4BD"/>
		</linearGradient>
	</defs>
	<path fill="url(#gradient_0)" transform="scale(1.6 1.6)" d="M305.321 176.056L245.147 176.082C212.662 176.032 187.714 151.182 187.029 119.278L186.809 103.451C178.729 103.471 168.782 104.775 162.475 98.6084C154.769 91.0748 160.019 79.4121 169.84 77.0104L170.283 76.8915C173.146 76.1668 176.644 76.4829 179.599 76.479L469.531 76.442C485.096 77.1323 485.826 100.228 469.829 102.854L468.003 103.099C463.484 103.741 458.52 103.413 453.956 103.267L453.498 118.594C451.629 152.273 429.093 176.002 393.959 176.076L334.987 176.009L334.74 181.366C334.501 179.526 334.628 177.701 334.714 175.855L305.321 176.056Z"/>
	<defs>
		<linearGradient id="gradient_1" gradientUnits="userSpaceOnUse" x1="552.40912" y1="413.85028" x2="107.76245" y2="365.92169">
			<stop offset="0" stop-color="#2CD1D6"/>
			<stop offset="1" stop-color="#53D1BA"/>
		</linearGradient>
	</defs>
	<path fill="url(#gradient_1)" transform="scale(1.6 1.6)" d="M141.098 514.118L140.899 513.594C135.967 512.264 130.376 514.024 125.298 512.561L119.844 511.245C105.498 506.228 93.7162 491.997 95.3774 476.248C96.1618 468.812 99.2121 461.382 101.734 454.386L154.627 303.362C161.293 283.844 165.391 263.497 188.659 259.058C193.291 258.174 198.201 258.613 202.912 258.378L272.068 257.822L358.246 258.602C361.411 258.6 365.443 258.996 368.473 258.204L445.145 258.427C470.252 259.669 476.711 273.873 484.055 296.25L533.153 436.426C536.819 446.35 541.339 456.251 544.232 466.424C551.872 493.296 531.593 513.91 504.031 512.373C502.973 512.314 501.374 512.351 500.398 511.952C498.957 511.62 496.387 512.123 495.312 511.409L491.233 511.901C488.301 512.407 484.743 512.023 481.749 512.008L464.714 512.153C461.966 512.215 459.214 513.063 456.406 513.192L424.276 513.446L220.353 513.308C218.993 513.281 218.093 512.775 217.083 513.759C214.036 513.241 210.796 513.448 207.726 513.448L141.098 514.118Z"/>
	<defs>
		<linearGradient id="gradient_2" gradientUnits="userSpaceOnUse" x1="416.75076" y1="399.95975" x2="224.32814" y2="371.88361">
			<stop offset="0" stop-color="#50D4B4"/>
			<stop offset="1" stop-color="#00FFAF"/>
		</linearGradient>
	</defs>
	<path fill="url(#gradient_2)" transform="scale(1.6 1.6)" d="M318.823 288.957C364.55 286.969 403.394 317.843 415.382 361.204L417.939 373.906C419.388 382.798 418.463 394.967 416.598 403.607C406.981 448.163 368.133 479.956 323.048 483.742C271.081 484.371 224.781 439.692 223.152 387.57C221.75 342.701 254.909 300.234 298.874 290.968C305.285 289.617 312.273 289.158 318.823 288.957Z"/>
	<path fill="#38D4D1" transform="scale(1.6 1.6)" d="M317.71 448.802L321.916 448.812C329.703 449.785 330.098 468.342 322.627 473.294C311.541 476.166 312.683 462.124 313.656 455.323L313.948 453.567C314.587 451.092 315.589 450.066 317.71 448.802Z"/>
	<path fill="#38D4D1" transform="scale(1.6 1.6)" d="M312.226 368.756C312.199 362.634 309.883 348.398 315.759 344.169C324.882 337.603 328.458 347.105 328.464 354.855C328.467 359.483 328.238 363.641 327.001 368.126L312.226 368.756Z"/>
	<path fill="#38D4D1" transform="scale(1.6 1.6)" d="M319.863 302.249C327.699 301.884 327.579 308.586 327.827 314.727C327.974 318.35 328.537 322.634 327.35 326.131L327.192 326.562C326.053 329.724 324.195 331.381 320.827 332.086L319.688 331.875C309.258 329.58 310.059 304.434 319.863 302.249Z"/>
	<path fill="#2ED2D4" transform="scale(1.6 1.6)" d="M327.001 368.321C330.306 369.104 333.851 373.03 335.499 375.985L336.492 377.98C344.937 395.429 319.237 413.191 306.329 395.781C299.581 386.68 302.84 375.12 311.906 368.996L312.226 368.788L327.001 368.321Z"/>
</svg>
