<?xml version="1.0" encoding="utf-8" ?>
<svg xmlns="http://www.w3.org/2000/svg" xmlns:xlink="http://www.w3.org/1999/xlink" width="1024" height="1024">
	<path fill="#EEC86C" transform="scale(1.6 1.6)" d="M407.771 84.123C422.95 82.8765 429.498 91.8436 439.42 101.995L512.938 175.184C521.53 183.498 533.188 195.774 518.388 205.454L517.932 205.746C515.959 207.02 514.03 207.712 511.795 208.35C507.046 209.004 501.872 208.593 497.067 208.594L440.989 208.588C436.421 208.583 431.437 208.959 426.913 208.393C411.426 206.456 400.083 193.407 395.809 179.073L395.596 178.37C394.644 174.911 394.675 171.042 394.667 167.479L394.574 106.737C394.407 94.6867 394.095 87.1514 407.771 84.123Z"/>
	<defs>
		<linearGradient id="gradient_0" gradientUnits="userSpaceOnUse" x1="276.19339" y1="462.87842" x2="125.4436" y2="333.38748">
			<stop offset="0" stop-color="#F3CE6C"/>
			<stop offset="1" stop-color="#EBC099"/>
		</linearGradient>
	</defs>
	<path fill="url(#gradient_0)" transform="scale(1.6 1.6)" d="M197.403 297.38L211.824 297.706C229.739 299.296 258.428 311.907 270.588 326.458C266.15 330.899 260.916 334.713 256.25 338.959L216.367 375.38C211.673 379.665 206.302 383.585 201.961 388.211C193.605 397.115 203.804 407.551 211.519 403.32C214.486 401.693 217.011 399.068 219.499 396.805L265.096 356.056C270.524 351.312 275.924 345.93 281.869 341.857C282.915 342.569 284.102 344.669 284.815 345.744C305.497 376.897 305.736 416.064 287.469 448.452C270.05 479.571 234.225 497.396 199.228 497.479C194.956 497.489 190.29 497.665 186.09 496.781L175.208 494.798C133.3 485.094 102.466 446 100.457 403.294C97.8877 348.656 142.823 299.86 197.403 297.38Z"/>
	<defs>
		<linearGradient id="gradient_1" gradientUnits="userSpaceOnUse" x1="548.75598" y1="486.84821" x2="120.40487" y2="197.76151">
			<stop offset="0" stop-color="#F4D35E"/>
			<stop offset="1" stop-color="#FAF0CA"/>
		</linearGradient>
	</defs>
	<path fill="url(#gradient_1)" transform="scale(1.6 1.6)" d="M355.488 83.8437C358.144 83.8567 381.263 83.7147 381.554 83.9726C381.539 88.698 382.093 93.346 382.226 98.061L382.304 172.295C382.355 196.735 396.524 218.814 422.764 220.57C427.093 220.86 431.66 220.449 436.01 220.423L496.455 220.346C507.577 220.335 518.252 221.11 528.634 216.452L532.806 214.596C533.325 221.604 533.028 228.743 533.016 235.774L532.992 488.469C532.968 504.277 532.271 514.612 521.169 527.641C508.852 542.095 494.904 544.294 477.39 544.307L216.25 544.319C197.888 544.107 180.607 531.002 174.359 513.896C205.851 516.82 234.004 514.265 262.099 497.699L268.872 493.488C280.21 485.716 277.981 488.399 292.414 488.41L447.5 488.447C450.982 488.448 455.984 489.1 459.24 487.969L459.674 487.825C463.134 486.624 466.272 483.434 465.466 479.531L465.366 479.032C463.209 469.017 456.016 470.509 447.895 470.491L293.794 470.465C295.724 467.96 299.206 461.69 300.941 458.75C305.67 450.735 310.2 441.999 313.396 433.259C318.907 432.681 324.466 432.821 330.001 432.817L448.424 432.767C451.924 432.761 455.911 433.095 459.34 432.533C471.724 430.505 465.456 415.907 458.522 415.457C453.168 415.11 447.659 415.339 442.288 415.33L317.568 415.307C317.599 407.168 317.987 398.838 317.481 390.719C317.313 388.023 315.468 379.237 316.011 377.187L443.96 377.202C448.655 377.214 453.702 377.635 458.354 377.183C467.043 376.339 468.343 366.983 461.204 360.877C459.212 359.174 457.823 359.646 455.331 359.611L444.115 359.569C430.029 359.558 311.918 359.739 311.893 359.721C311.288 359.306 305.24 346.484 304.275 344.641C285.601 308.978 258.283 288.095 219.544 280.368C202.825 278.209 193.079 278.675 175.943 280.111L175.877 129.458C175.98 110.286 188.994 92.0962 207.373 86.2621C215.444 83.7001 223.35 83.896 231.715 83.8896L355.488 83.8437ZM430.831 271.64C414.837 275.591 427.411 289.017 425.029 293.125C423.462 295.828 419.395 298.424 416.995 300.494L394.569 321.052C392.523 322.761 390.388 324.395 388.953 326.686C384.724 333.436 388.659 343.196 397.288 341.267C400.991 340.439 404.665 336.144 407.308 333.596L416.501 324.843C419.509 322.016 432.774 308.33 436.104 308.371C438.862 308.404 439.307 318.502 445.512 320.854C460.956 326.708 460.877 306.994 462.733 297.578C463.913 291.588 469.98 275.401 460.425 272.668L430.831 271.64ZM382.651 237.656C379.045 239.009 376.51 243.734 374.08 246.571L321.505 301.429C316.977 305.987 292.049 325.104 307.972 331.699C315.121 334.66 320.908 327.469 325.074 322.717C332.845 314.008 341.817 306.135 350.086 297.883L371.691 275.932C376.365 271.249 381.062 265.713 386.824 262.365C390.739 264.717 394.121 267.117 398.499 268.611C419.514 262.737 397.14 241.934 387.876 238.318C386.336 237.717 384.284 237.229 382.651 237.656Z"/>
</svg>
